Hanif_Deep_2_5_grf.mot
version=1
nRows=26
nColumns=19
inDegrees=yes
endheader
time	right_ground_force_vx	right_ground_force_vy	right_ground_force_vz	right_ground_force_px	right_ground_force_py	right_ground_force_pz	right_ground_torque_x	right_ground_torque_y	right_ground_torque_z	left_ground_force_vx	left_ground_force_vy	left_ground_force_vz	left_ground_force_px	left_ground_force_py	left_ground_force_pz	left_ground_torque_x	left_ground_torque_y	left_ground_torque_z
5.540000	-2.200550	213.155000	34.547000	0.226230	0.000000	-1.421020	-18.136900	1.130270	5.951430	0.247639	214.740000	-39.392700	0.231664	0.000000	-0.972577	14.936100	-3.029350	7.580940
5.545000	-2.777990	210.836000	34.826100	0.226828	0.000000	-1.421110	-17.927200	1.037450	6.020930	0.268868	207.201000	-39.544700	0.232102	0.000000	-0.972774	14.451900	-2.910620	7.445820
5.550000	-2.450540	204.716000	34.638500	0.227135	0.000000	-1.420780	-17.472800	1.015590	5.921290	0.235931	201.646000	-39.515400	0.231610	0.000000	-0.973971	14.306300	-2.902640	7.184450
5.555000	-2.611680	200.179000	34.969500	0.227840	0.000000	-1.419610	-17.320900	0.886974	5.937460	0.095285	198.293000	-39.693400	0.231428	0.000000	-0.973171	13.912500	-2.740550	7.028970
5.560000	-2.130750	198.701000	35.876300	0.227492	0.000000	-1.419850	-17.139100	0.862623	5.829770	0.066160	195.646000	-39.770100	0.231906	0.000000	-0.973115	13.716300	-2.692380	7.046510
5.565000	-1.222480	197.861000	36.560800	0.228411	0.000000	-1.420140	-17.000000	0.822326	5.984640	-0.439741	192.777000	-39.906500	0.231792	0.000000	-0.973305	13.562100	-2.605900	6.937320
5.570000	-1.062440	195.357000	37.265300	0.227950	0.000000	-1.420240	-16.763600	0.690853	5.808050	-0.488328	190.281000	-40.404200	0.232200	0.000000	-0.972067	13.152100	-2.516360	6.944700
5.575000	-0.447264	192.384000	38.478600	0.227441	0.000000	-1.420060	-16.537800	0.650741	5.628250	-1.528940	187.304000	-40.803300	0.232218	0.000000	-0.973281	13.194500	-2.319250	6.849580
5.580000	-0.086564	190.059000	39.025800	0.227868	0.000000	-1.420970	-16.161800	0.600989	5.644740	-1.708440	183.593000	-40.969100	0.233356	0.000000	-0.971901	12.684200	-2.226130	6.951960
5.585000	0.501021	184.329000	39.650600	0.228039	0.000000	-1.419630	-15.915900	0.403735	5.485120	-2.127170	180.437000	-41.272400	0.232871	0.000000	-0.971451	12.393900	-2.124500	6.760740
5.590000	0.322125	181.061000	39.891700	0.228609	0.000000	-1.420600	-15.459700	0.366888	5.506140	-2.859310	175.775000	-41.318000	0.231369	0.000000	-0.970028	11.838800	-2.012760	6.336630
5.595000	0.383603	176.644000	39.496200	0.228265	0.000000	-1.420300	-15.134900	0.222905	5.284950	-3.469810	170.527000	-41.119200	0.232193	0.000000	-0.970796	11.630500	-1.854540	6.312830
5.600000	-0.305338	171.994000	39.480400	0.227131	0.000000	-1.421190	-14.588500	0.058181	4.931470	-4.443880	164.780000	-40.535800	0.231197	0.000000	-0.969690	11.077100	-1.702610	5.943460
5.605000	-0.730956	165.760000	39.264600	0.227830	0.000000	-1.423290	-13.715200	-0.062294	4.871520	-5.006170	159.700000	-40.115300	0.230877	0.000000	-0.968835	10.616300	-1.701380	5.752390
5.610000	-0.987013	162.138000	38.653500	0.227372	0.000000	-1.422690	-13.514000	-0.208636	4.660090	-5.652610	155.483000	-38.973400	0.230403	0.000000	-0.967040	10.071400	-1.595170	5.514790
5.615000	-1.394300	160.109000	38.689600	0.227434	0.000000	-1.424620	-13.038200	-0.286906	4.607090	-6.038000	149.508000	-37.740600	0.228835	0.000000	-0.966454	9.605470	-1.462940	5.051830
5.620000	-1.812750	155.652000	38.721400	0.227875	0.000000	-1.422420	-13.018600	-0.492448	4.522560	-6.814170	146.020000	-37.092700	0.228334	0.000000	-0.964993	9.184430	-1.359180	4.856950
5.625000	-2.745800	153.990000	38.282800	0.228152	0.000000	-1.422990	-12.796400	-0.547453	4.523700	-7.442170	140.039000	-35.849200	0.226652	0.000000	-0.962954	8.537510	-1.263510	4.414600
5.630000	-3.358300	150.163000	37.563400	0.228507	0.000000	-1.424270	-12.288300	-0.647023	4.455450	-7.404840	135.984000	-35.339200	0.225025	0.000000	-0.962655	8.246720	-1.145250	4.045200
5.635000	-3.547840	147.132000	36.376300	0.227585	0.000000	-1.425330	-11.882300	-0.774828	4.185880	-7.400250	132.610000	-33.943600	0.222408	0.000000	-0.962654	8.042730	-1.162230	3.576730
5.640000	-4.058030	141.978000	36.027600	0.228320	0.000000	-1.423400	-11.741700	-0.832372	4.153560	-6.974240	130.782000	-33.326300	0.219555	0.000000	-0.960595	7.646540	-1.087670	3.103050
5.645000	-4.003000	140.176000	35.180400	0.228207	0.000000	-1.423920	-11.518600	-0.848148	4.072550	-6.978760	126.766000	-32.848200	0.218961	0.000000	-0.957437	7.010960	-0.998384	2.922130
5.650000	-4.514450	136.454000	34.606600	0.226897	0.000000	-1.423100	-11.323800	-0.930189	3.765250	-6.624570	125.097000	-32.535800	0.216178	0.000000	-0.957403	6.906620	-1.019220	2.519500
5.655000	-4.166650	133.841000	33.970300	0.228975	0.000000	-1.423210	-11.089500	-1.064990	3.945070	-6.040830	123.301000	-32.083600	0.211861	0.000000	-0.955088	6.502960	-0.948268	1.890130
5.660000	-4.082020	132.586000	33.490000	0.228860	0.000000	-1.425330	-10.699700	-1.158430	3.861170	-5.849490	120.238000	-31.096800	0.211054	0.000000	-0.953548	6.156000	-0.968779	1.745040
5.665000	-4.227070	128.859000	32.658100	0.227119	0.000000	-1.424500	-10.502600	-1.212960	3.498820	-5.796240	118.124000	-30.314300	0.207159	0.000000	-0.952689	5.938350	-0.898559	1.205910
